<?xml version="1.0" encoding="UTF-8" standalone="no"?>
<svg width="106px" height="23px" viewBox="0 0 106 23" version="1.1" xmlns="http://www.w3.org/2000/svg" xmlns:xlink="http://www.w3.org/1999/xlink">
    <!-- Generator: Sketch 39.1 (31720) - http://www.bohemiancoding.com/sketch -->
    <title>Adobe</title>
    <desc>Created with Sketch.</desc>
    <defs></defs>
    <g id="Page-1" stroke="none" stroke-width="1" fill="none" fill-rule="evenodd" opacity="0.200000018">
        <g id="Front-end-Developer-Test" transform="translate(-1097.000000, -3052.000000)" fill="#FFFFFF">
            <g id="Call-to-Action-#8" transform="translate(0.000000, 2414.000000)">
                <g id="Logos" transform="translate(237.000000, 632.000000)">
                    <path d="M901.928766,23.4169322 L900.878101,28.7419262 L896.998317,28.7419262 L901.838083,6.58829964 L906.593476,6.58829964 L910.990123,28.7419262 L907.089411,28.7419262 L906.062331,23.4169322 L901.928766,23.4169322 L901.928766,23.4169322 Z M905.685647,20.2899881 L904.878465,15.4923662 C904.647937,14.1090131 904.353631,11.9475862 904.12875,10.4503686 L904.041388,10.4503686 C903.805545,11.9585731 903.475365,14.1815933 903.233211,15.5036861 L902.363581,20.290321 L905.685647,20.290321 L905.685647,20.2899881 Z M923.804043,6 L923.804043,24.1473959 C923.804043,25.5856837 923.877121,27.3552437 923.935583,28.7385969 L920.49626,28.7385969 L920.271711,26.8927943 L920.189996,26.8927943 C919.612015,28.0307728 918.355071,28.9982877 916.852318,28.9982877 C913.558487,28.9982877 911.924859,25.3549583 911.924859,20.7547681 C911.924859,15.1494411 914.360686,12.4236861 917.015748,12.4236861 C918.404232,12.4236861 919.303094,13.1052081 919.755514,14.0910345 L919.822613,14.0910345 L919.822613,6.00033294 L923.804375,6.00033294 L923.804043,6 Z M919.821948,18.8460404 C919.821948,18.5507253 919.821948,18.2054697 919.763154,17.8895125 C919.608693,16.7958145 919.028054,15.810654 918.094315,15.810654 C916.492575,15.810654 915.903299,18.1235672 915.903299,20.8286801 C915.903299,23.9369797 916.743698,25.7062069 918.039174,25.7062069 C918.631107,25.7062069 919.313723,25.4019025 919.684429,24.0974554 C919.77478,23.8377645 919.821616,23.4895124 919.821616,23.0829964 L919.821616,18.8457075 L919.821948,18.8460404 Z M932.022676,28.9989536 C928.35216,28.9989536 926.050199,26.0458026 926.050199,20.7587633 C926.050199,14.9889655 929.005877,12.4243519 932.115684,12.4243519 C935.736374,12.4243519 938.006447,15.5216647 938.006447,20.6652081 C938.006447,27.2740071 934.450531,28.9986206 932.055229,28.9986206 L932.023008,28.9986206 L932.022676,28.9989536 Z M932.098411,25.9372651 C933.618437,25.9372651 933.995121,23.0656837 933.995121,20.6881807 C933.995121,18.4275386 933.618437,15.482711 932.031977,15.482711 C930.35118,15.482711 929.997747,18.4282045 929.997747,20.6885136 C929.997747,23.4169322 930.441531,25.9375981 932.063865,25.9375981 L932.098744,25.9375981 L932.098411,25.9372651 Z M940.232341,6.00033294 L944.215099,6.00033294 L944.215099,14.363044 L944.278876,14.363044 C945.06347,13.1288466 946.108155,12.424019 947.625191,12.424019 C950.627374,12.424019 952.136105,15.8456123 952.136105,20.3196195 C952.136105,25.9722235 949.886295,28.9982877 946.971474,28.9982877 C945.582989,28.9982877 944.657886,28.3810225 943.823467,26.8175505 L943.739427,26.8175505 L943.517867,28.7385969 L940.098807,28.7385969 C940.156937,27.4078478 940.232341,25.5856837 940.232341,24.1473959 L940.232341,6.00033294 L940.232341,6.00033294 Z M944.215099,23.0067538 C944.215099,23.40761 944.288177,23.782497 944.372882,24.0331985 C944.772486,25.3759334 945.449123,25.7062069 945.991895,25.7062069 C947.533179,25.7062069 948.154343,23.7495362 948.154343,20.6205945 C948.154343,17.7723186 947.497636,15.810654 945.974621,15.810654 C945.219259,15.810654 944.582815,16.6330083 944.364245,17.5152913 C944.287845,17.7932937 944.215431,18.2257788 944.215431,18.5240903 L944.215431,23.0070868 L944.215099,23.0067538 Z M957.664799,22.0046135 C957.711303,24.907824 959.23465,25.853365 961.125049,25.853365 C962.32353,25.853365 963.35061,25.5863495 964.109294,25.3006896 L964.646086,28.1719381 C963.589775,28.6280618 961.958804,28.9143876 960.394931,28.9143876 C956.120857,28.9143876 953.786675,25.9868727 953.786675,20.9871581 C953.786675,15.6208799 956.493888,12.3980499 960.030205,12.3980499 C963.446608,12.3980499 965.339996,15.2463258 965.339996,19.8957907 C965.339996,20.9601902 965.295817,21.5598097 965.225729,22.0272532 L957.664134,22.0046135 L957.664799,22.0046135 Z M961.679446,19.1823068 C961.700041,16.9283234 961.040344,15.3482045 959.777089,15.3482045 C958.336121,15.3482045 957.723261,17.4630202 957.679746,19.1823068 L961.679778,19.1823068 L961.679446,19.1823068 Z M872.967311,14.4745644 L879.073369,28.997701 L875.072564,28.997701 L873.245995,24.3716813 L868.775427,24.3716813 L872.967311,14.4745644 Z M869.589734,6 L860,6 L860,28.9989536 L869.589734,6 Z M876.342514,6 L885.926999,6 L885.926999,28.9989536 L876.342514,6 Z" id="Adobe"></path>
                </g>
            </g>
        </g>
    </g>
</svg>