<?xml version="1.0" encoding="UTF-8" standalone="no"?>
<svg width="74px" height="74px" viewBox="0 0 74 74" version="1.1" xmlns="http://www.w3.org/2000/svg" xmlns:xlink="http://www.w3.org/1999/xlink">
    <!-- Generator: Sketch 39.1 (31720) - http://www.bohemiancoding.com/sketch -->
    <title>M02 App Icon Blue</title>
    <desc>Created with Sketch.</desc>
    <defs>
        <linearGradient x1="-46.9769123%" y1="-44.825382%" x2="101.999998%" y2="100.999999%" id="linearGradient-1">
            <stop stop-color="#50B4AC" offset="0%"></stop>
            <stop stop-color="#3E9BC9" offset="66.4237691%"></stop>
            <stop stop-color="#358ED7" offset="100%"></stop>
        </linearGradient>
        <rect id="path-2" x="0" y="0" width="68" height="68" rx="14"></rect>
        <filter x="-50%" y="-50%" width="200%" height="200%" filterUnits="objectBoundingBox" id="filter-4">
            <feOffset dx="2" dy="2" in="SourceAlpha" result="shadowOffsetOuter1"></feOffset>
            <feGaussianBlur stdDeviation="1.5" in="shadowOffsetOuter1" result="shadowBlurOuter1"></feGaussianBlur>
            <feColorMatrix values="0 0 0 0 0   0 0 0 0 0   0 0 0 0 0  0 0 0 0.125254755 0" type="matrix" in="shadowBlurOuter1"></feColorMatrix>
        </filter>
        <linearGradient x1="-46.9769123%" y1="-44.825382%" x2="101.999998%" y2="100.999999%" id="linearGradient-5">
            <stop stop-color="#50B4AC" offset="0%"></stop>
            <stop stop-color="#358ED7" offset="100%"></stop>
        </linearGradient>
        <linearGradient x1="-46.9769123%" y1="-44.825382%" x2="101.999998%" y2="100.999999%" id="linearGradient-6">
            <stop stop-color="#0B3834" offset="0%"></stop>
            <stop stop-color="#358ED7" offset="100%"></stop>
        </linearGradient>
    </defs>
    <g id="Page-1" stroke="none" stroke-width="1" fill="none" fill-rule="evenodd">
        <g id="Front-end-Developer-Test" transform="translate(-149.000000, -3251.000000)">
            <g id="Footer-#13" transform="translate(0.000000, 3192.000000)">
                <g id="M02-App-Icon-Blue" transform="translate(150.000000, 60.000000)">
                    <mask id="mask-3" fill="white">
                        <use xlink:href="#path-2"></use>
                    </mask>
                    <g id="Mask">
                        <use fill="black" fill-opacity="1" filter="url(#filter-4)" xlink:href="#path-2"></use>
                        <use fill="url(#linearGradient-1)" fill-rule="evenodd" xlink:href="#path-2"></use>
                    </g>
                    <circle id="Oval" fill="url(#linearGradient-5)" style="mix-blend-mode: overlay;" mask="url(#mask-3)" cx="9" cy="69" r="49"></circle>
                    <path d="M63,95 C90.0619527,95 112,73.0619527 112,46 C112,18.9380473 90.0619527,-3 63,-3 C35.9380473,-3 14,18.9380473 14,46 C14,73.0619527 35.9380473,95 63,95 Z" id="Oval" fill="url(#linearGradient-6)" style="mix-blend-mode: overlay;" mask="url(#mask-3)"></path>
                    <path d="M53.9621904,27.6999559 C53.9523456,27.5916632 53.932656,27.4735257 53.932656,27.3750778 C53.932656,26.7154769 54.2969132,26.193703 55.0451173,26.193703 C55.763787,26.193703 56.1181994,26.6662529 56.1181994,27.1880268 C56.1181994,27.6507319 55.8720797,28.0346787 55.3010818,28.3890912 L54.2476893,29.0486921 C53.135228,29.7378274 52.7512812,30.5943242 52.7315916,31.6870959 L57.3487982,31.6870959 L57.3487982,30.6435481 L54.1886205,30.6435481 C54.2772236,30.3285149 54.5331882,30.1020847 54.8383767,29.9150337 L56.0788203,29.14714 C56.8467139,28.6745901 57.309419,27.9952996 57.309419,27.1683372 C57.309419,26.0755655 56.4726119,25.16 55.0648069,25.16 C53.6176227,25.16 52.7906603,26.1543238 52.7906603,27.2569403 C52.7906603,27.3849226 52.8103499,27.5325944 52.8201947,27.6211976 L53.9621904,27.6999559 Z M47.927334,28.4973839 C47.927334,27.6901111 48.065161,27.0698893 48.3801943,26.6760977 C48.5967797,26.3905988 48.9019682,26.2035478 49.3646733,26.2035478 C49.8273785,26.2035478 50.1227222,26.3905988 50.3491524,26.6760977 C50.6543409,27.0698893 50.7921679,27.6901111 50.7921679,28.4973839 C50.7921679,29.3046567 50.6543409,29.9248785 50.3491524,30.3186701 C50.1227222,30.604169 49.8273785,30.79122 49.3646733,30.79122 C48.9019682,30.79122 48.5967797,30.604169 48.3801943,30.3186701 C48.0750058,29.9248785 47.927334,29.3046567 47.927334,28.4973839 L47.927334,28.4973839 Z M46.7558039,28.4973839 C46.7558039,29.3440358 46.893631,30.1414638 47.3268018,30.79122 C47.7402829,31.4114418 48.4097287,31.8347678 49.3646733,31.8347678 C50.319618,31.8347678 50.9792189,31.4114418 51.3927001,30.79122 C51.8258709,30.1414638 51.9636979,29.3440358 51.9636979,28.4973839 C51.9636979,27.6507319 51.8258709,26.8533039 51.3927001,26.2035478 C50.9792189,25.583326 50.319618,25.16 49.3646733,25.16 C48.4097287,25.16 47.7402829,25.583326 47.3268018,26.2035478 C46.893631,26.8533039 46.7558039,27.6507319 46.7558039,28.4973839 Z M20.5432223,44.2 L20.5432223,33.0452525 C20.5432223,30.275798 22.2576847,28.3525657 24.8103287,28.3525657 C27.5534685,28.3525657 28.6964434,30.1988687 28.6964434,32.5836768 L28.6964434,44.2 L32.2777649,44.2 L32.2777649,33.0067879 C32.2777649,30.3527273 33.9922272,28.3525657 36.5067721,28.3525657 C39.2118127,28.3525657 40.3928868,30.160404 40.3928868,32.5836768 L40.3928868,44.2 L43.9361091,44.2 L43.9361091,32.1990303 C43.9361091,27.3524848 40.8119776,25.16 37.6116478,25.16 C35.2875988,25.16 32.9254506,26.0062222 31.4776824,28.6602828 C30.4871041,26.2754747 28.2773526,25.16 25.9914028,25.16 C23.8578496,25.16 21.5718997,26.1216162 20.4289248,28.1602424 L20.4289248,25.6985051 L17,25.6985051 L17,44.2 L20.5432223,44.2 Z" id="M02-Logo" fill="#FFFFFF" mask="url(#mask-3)"></path>
                </g>
            </g>
        </g>
    </g>
</svg>