<?xml version="1.0" encoding="UTF-8" standalone="no"?>
<svg width="79px" height="35px" viewBox="0 0 79 35" version="1.1" xmlns="http://www.w3.org/2000/svg" xmlns:xlink="http://www.w3.org/1999/xlink">
    <!-- Generator: Sketch 39.1 (31720) - http://www.bohemiancoding.com/sketch -->
    <title>Marvel</title>
    <desc>Created with Sketch.</desc>
    <defs></defs>
    <g id="Page-1" stroke="none" stroke-width="1" fill="none" fill-rule="evenodd" opacity="0.200000018">
        <g id="Front-end-Developer-Test" transform="translate(-426.000000, -3047.000000)" fill="#FFFFFF">
            <g id="Call-to-Action-#8" transform="translate(0.000000, 2414.000000)">
                <g id="Logos" transform="translate(237.000000, 632.000000)">
                    <path d="M256.042907,23.226807 C227.283503,20.9374591 203.564765,28.0241868 198.148509,30.6073914 C195.187255,32.0198165 194.948069,33.7222713 195.346621,34.6735467 C195.688315,35.4886912 197.089259,35.8921631 198.672531,35.0382022 C210.11927,28.86366 233.217766,23.8645442 255.999717,25.2635749 C257.113911,25.3319137 257.633286,23.3533704 256.042907,23.226807 Z M263.230229,14.5152572 C261.971703,15.9454505 260.243553,16.9642445 259.650919,16.4470569 C259.057192,15.9295959 259.665407,14.344137 259.665407,14.344137 C262.48807,12.5796306 268,7.81751359 268,4.16139078 C268,0.778622935 265.097243,-0.243177969 261.861541,2.85174708 C259.653652,4.96341428 257.630006,8.84505495 256.475081,12.7676989 C254.833037,14.4091955 252.295757,16.4850532 249.960758,16.4850532 C248.762643,16.4850532 248.401542,15.6294521 248.518538,14.4871017 C250.538631,14.3742061 255.961447,12.8185429 255.961447,8.23574671 C255.879167,6.22822776 254.334711,5.48196867 252.949895,5.48196867 C250.495987,5.48196867 247.302928,8.04658506 245.744805,11.6529573 C245.335592,11.5829784 244.916266,11.4397404 244.534389,11.1808732 C245.031348,10.071052 245.35664,9.09189449 245.448761,8.4191679 C245.700521,6.58222245 244.972303,5.31166852 243.465024,5.3791872 C242.497074,5.42237728 241.316181,6.28535895 241.026698,8.40112647 C240.829609,9.84252726 241.572314,11.3541803 241.572314,11.3541803 C240.870885,13.5298125 238.187906,16.2065045 237.238818,16.1778022 C236.369549,16.1515601 237.418685,12.2660925 238.32513,9.43276815 C238.894529,8.82728688 239.372627,8.1556537 239.521878,7.56657372 C239.761611,6.62131221 239.398595,6.19843206 239.105286,5.98548854 C238.421078,5.48880254 236.538482,5.65254217 235.490439,7.5157297 C235.220365,7.99574104 234.853796,8.76250175 234.482306,9.69928925 C233.703244,10.6232291 232.566088,11.8910495 232.190771,11.6696319 C231.620553,11.3328586 233.322188,8.98774625 233.138493,7.64694009 C232.97202,6.42695682 232.010357,5.81354826 230.963681,5.95651291 C229.494671,6.15770217 227.497813,9.24223973 227.497813,9.24223973 C227.497813,9.24223973 227.899372,8.32103346 227.870396,7.50971589 C227.830759,6.39333416 225.655127,5.84662421 224.664215,7.95391773 C224.301473,8.72559883 223.678497,11.3820625 223.116753,14.0136509 C222.616513,14.9302101 221.002899,17.6965625 219.677947,17.8392538 C218.591908,17.9570698 219.911392,12.9224178 220.065565,12.6725713 C220.64371,11.7352371 221.441634,9.76134083 221.344046,8.85954276 C221.217483,7.68684991 220.456462,7.43208307 219.683961,7.57067405 C218.593548,7.76612286 218.026337,8.91148021 218.026337,8.91148021 C218.026337,8.91148021 217.350603,7.97305257 215.967427,8.12257775 C211.428367,8.61215651 208.478047,16.5402709 208.852817,20.44378 C209.046352,22.4641466 210.102322,23.7114654 211.742452,23.5236705 C213.778127,23.2902254 215.359485,20.2849607 215.359485,20.2849607 C215.359485,20.2849607 215.825829,22.6694362 217.94433,22.3446905 C219.386278,22.1235463 220.823851,20.8898953 222.009939,19.5291342 C221.962375,19.7863613 221.929846,19.9684157 221.918091,20.0455018 C221.617401,22.0142043 224.911602,21.8747933 225.136846,20.237397 C226.178875,12.6687444 228.728457,9.47978521 229.470616,9.47978521 C230.083751,9.47978521 227.819825,13.07659 229.151884,14.5368523 C230.220702,15.7087251 231.921243,14.7347613 233.31262,13.5134112 C233.101043,14.4983092 232.955619,15.514643 232.933477,16.5047348 C232.884273,18.680367 233.673722,20.4003165 235.75778,20.3002686 C238.539987,20.166598 241.431263,16.7783631 243.329167,13.5175116 C243.758334,13.8192955 244.297937,14.0735156 244.973397,14.204726 C244.833712,14.991715 244.774941,15.8052194 244.821685,16.6356718 C244.963556,19.1584649 246.699907,20.078031 248.662049,20.0337475 C251.004974,19.9807166 253.684947,18.1855945 255.647909,16.5544854 C255.634788,16.6487928 255.62112,16.743647 255.609639,16.8374078 C255.467768,17.9874122 255.643535,20.2633657 257.337516,20.4180846 C259.357609,20.6023259 262.774546,18.5691115 264.4606,16.3828184 C265.709832,14.7629168 264.232622,13.376187 263.230229,14.5152572 Z M265.023711,4.0804777 C265.207406,4.0804777 265.298706,4.21906868 265.298706,4.50390456 C265.298706,6.66231546 259.984412,11.2459317 259.984412,11.2459317 C259.984412,11.2459317 263.474608,4.0804777 265.023711,4.0804777 L265.023711,4.0804777 Z M216.599697,12.0091388 C216.43213,13.3226095 214.208388,19.0622439 213.000432,19.0958666 C211.451876,19.1390567 213.768013,10.8755357 216.255816,10.9332136 C216.694824,10.9433278 216.687444,11.3202843 216.599697,12.0091388 Z M252.218944,8.68486893 C252.651665,8.68486893 252.896864,8.93662887 252.896864,9.3723567 C252.896864,10.5179874 251.294184,11.4356401 249.495782,11.5693107 C250.308193,10.0109139 251.442889,8.68486893 252.218944,8.68486893 Z M197.168805,13.5812033 C198.662963,13.5973312 196.032468,21.3100419 196.314844,24.663014 C196.59968,28.0457819 200.363778,27.0718181 200.124866,25.1244372 C199.718387,21.8138351 201.936116,11.4400137 204.185281,11.4400137 C205.763359,11.4400137 202.437449,18.5915267 203.091861,23.1710426 C203.524855,26.2009091 207.45488,25.1498593 207.055508,23.3533704 C205.734383,17.4078996 209.827601,11.6939605 209.368911,7.64557331 C209.168268,5.87423306 208.09699,5.00797114 207.025439,4.99949713 C203.273642,4.97079486 200.375532,12.6217273 200.375532,12.6217273 C200.375532,12.6217273 200.677316,8.27319634 197.761439,8.11355703 C193.297005,7.86890433 188.877402,18.9794174 189.002598,28.9000162 C189.042508,32.0649201 193.003695,31.5258641 192.795399,29.0025243 C192.408055,24.3098394 195.039096,13.5585148 197.168805,13.5812033 Z" id="Marvel"></path>
                </g>
            </g>
        </g>
    </g>
</svg>