<?xml version="1.0" encoding="UTF-8" standalone="no"?>
<svg width="96px" height="26px" viewBox="0 0 96 26" version="1.1" xmlns="http://www.w3.org/2000/svg" xmlns:xlink="http://www.w3.org/1999/xlink">
    <!-- Generator: Sketch 39.1 (31720) - http://www.bohemiancoding.com/sketch -->
    <title>Netflix</title>
    <desc>Created with Sketch.</desc>
    <defs></defs>
    <g id="Page-1" stroke="none" stroke-width="1" fill="none" fill-rule="evenodd" opacity="0.200000018">
        <g id="Front-end-Developer-Test" transform="translate(-951.000000, -3051.000000)" fill="#FFFFFF">
            <g id="Call-to-Action-#8" transform="translate(0.000000, 2414.000000)">
                <g id="Logos" transform="translate(237.000000, 632.000000)">
                    <path d="M795.852247,29.3595994 C797.183913,29.488828 798.528509,29.6309795 799.860176,29.773131 L802.795014,22.5104813 L805.587635,30.4321971 C807.022732,30.6131172 808.457829,30.7940373 809.879997,31.0008032 L804.979981,17.0958011 L809.879997,5 L805.729852,5 L805.691065,5.06461432 L803.040661,11.6035837 L800.713476,5.01292286 L796.615046,5.01292286 L800.842765,17.0182639 L795.852247,29.3595994 Z M792.749334,29.0752964 L792.749334,5 L788.650904,5 L788.650904,28.726379 C790.021357,28.8426848 791.39181,28.9460677 792.749334,29.0752964 Z M761.978785,27.7183956 C763.090662,27.7183956 764.18961,27.7313185 765.288558,27.7313185 L765.288558,18.8920792 L770.214432,18.8920792 L770.214432,15.1315257 L765.288558,15.1315257 L765.288558,8.7734764 L770.951374,8.7734764 L770.951374,5 L761.177199,5 L761.177199,27.7183956 C761.448704,27.7313185 761.70728,27.7183956 761.978785,27.7183956 Z M749.256844,27.9510072 C750.627297,27.8993157 751.984821,27.8605471 753.355274,27.8217785 L753.355274,8.7734764 L757.182199,8.7734764 L757.182199,5 L745.429918,5 L745.429918,8.7734764 L749.256844,8.7734764 L749.256844,27.9510072 Z M717.930356,30.4968115 L717.930356,16.152432 L722.778657,29.9152826 C724.265469,29.7472853 725.76521,29.5922109 727.264951,29.4371366 L727.264951,5 L723.334595,5 L723.334595,19.8483712 L718.09843,5 L717.930356,5 L714,5 L714,31.0008032 L714.025858,31.0008032 C715.318738,30.8328059 716.624547,30.6518858 717.930356,30.4968115 Z M741.473705,8.7734764 L741.473705,5 L731.686601,5 L731.686601,25.2630514 L731.686601,29.0365278 C734.931731,28.7522248 738.189789,28.5196132 741.460776,28.3257702 L741.460776,27.2402496 L741.460776,24.5522938 C739.573171,24.6556767 737.685566,24.7849054 735.797961,24.9270569 L735.797961,18.9050021 L740.723834,18.9050021 L740.723834,15.1315257 L735.797961,15.1315257 L735.797961,8.7734764 L741.473705,8.7734764 Z M779.08359,24.3713737 L779.08359,5 L774.972231,5 L774.972231,24.1904536 L774.972231,27.96393 C778.243218,28.0802358 781.501276,28.248233 784.759335,28.4679217 L784.759335,27.2531725 L784.759335,24.7073682 C782.858801,24.5652167 780.971195,24.4618338 779.08359,24.3713737 Z" id="Netflix"></path>
                </g>
            </g>
        </g>
    </g>
</svg>