<?xml version="1.0" encoding="UTF-8" standalone="no"?>
<svg width="140px" height="30px" viewBox="0 0 140 30" version="1.1" xmlns="http://www.w3.org/2000/svg" xmlns:xlink="http://www.w3.org/1999/xlink">
    <!-- Generator: Sketch 39.1 (31720) - http://www.bohemiancoding.com/sketch -->
    <title>Brazzers</title>
    <desc>Created with Sketch.</desc>
    <defs></defs>
    <g id="Page-1" stroke="none" stroke-width="1" fill="none" fill-rule="evenodd" opacity="0.200000018">
        <g id="Front-end-Developer-Test" transform="translate(-555.000000, -3049.000000)" fill="#FFFFFF">
            <g id="Call-to-Action-#8" transform="translate(0.000000, 2414.000000)">
                <g id="Logos" transform="translate(237.000000, 632.000000)">
                    <path d="M365.352756,11.1364004 L363.981102,11.1364004 L357.859843,24.5305321 L360.255118,24.5305321 L361.559827,21.675655 L369.145685,21.675655 L370.450394,24.5305321 L372.866142,24.5305321 L366.724409,11.1364004 L365.352756,11.1364004 Z M365.352756,13.3762218 L362.690575,19.2014282 L368.014937,19.2014282 L365.352756,13.3762218 Z M454.714961,3 L320.907087,3 C319.289764,3 318,4.49881047 318,6.37827121 L318,29.6217288 C318,31.4773989 319.289764,33 320.907087,33 L454.735433,33 C456.332283,33 457.64252,31.5011895 457.64252,29.6217288 L457.64252,6.37827121 C457.622047,4.49881047 456.332283,3 454.714961,3 Z M453.732283,24.8398097 C453.732283,26.6954798 452.44252,28.2180809 450.825197,28.2180809 L324.79685,28.2180809 C323.179528,28.2180809 321.889764,26.7192704 321.889764,24.8398097 L321.889764,10.8984933 C321.889764,9.01903251 323.179528,7.52022205 324.79685,7.52022205 L450.845669,7.52022205 C452.44252,7.52022205 453.752756,9.01903251 453.752756,10.8984933 L453.752756,24.8398097 L453.732283,24.8398097 Z M325.370079,18 L325.370079,24.9587636 L336.179528,24.9587636 L336.179528,24.934973 C337.12126,24.7922291 337.87874,23.2934186 337.87874,21.4615392 C337.87874,19.671511 337.155475,18.199507 336.243777,18 C337.155475,17.800493 337.87874,16.328489 337.87874,14.5384608 C337.87874,12.7065814 337.12126,11.2077709 336.179528,11.065027 L325.370079,11.0412364 L325.370079,18 Z M334.582677,21.8659801 L327.990551,21.8659801 L327.990551,19.011103 L334.582677,19.011103 C335.155906,19.0586843 335.606299,19.677241 335.606299,20.4385416 C335.606299,21.1998421 335.155906,21.8183988 334.582677,21.8659801 Z M334.582677,16.3703403 L327.990551,16.3703403 L327.990551,13.5154632 L334.582677,13.5154632 C335.155906,13.5630445 335.606299,14.1816012 335.606299,14.9429017 C335.606299,15.7042023 335.155906,16.322759 334.582677,16.3703403 Z M408.815748,18.749406 L408.815748,22.270421 L418.376378,22.270421 L418.376378,24.7446478 L406.686614,24.7446478 L406.686614,23.4004765 L406.686614,11.1839817 L408.815748,11.1839817 L408.815748,11.2077723 L418.376378,11.2077723 L418.376378,13.6819991 L408.815748,13.6819991 L408.815748,16.2751792 L414.588976,16.2751792 L414.588976,18.749406 L408.815748,18.749406 Z M344.16378,18.7018247 L344.16378,24.7446478 L341.604724,24.7446478 L341.604724,17.8929428 L341.604724,11.0412378 L352.762205,11.0650285 C353.724409,11.2077723 354.502362,12.8493267 354.502362,14.8715313 C354.502362,16.8699452 353.744882,18.5352902 352.762205,18.678034 L352.762205,18.7018247 L348.99937,18.7018247 L355.23937,24.7446478 L351.820472,24.7446478 L345.580472,18.7018247 L344.16378,18.7018247 Z M350.489764,16.7747826 L343.897638,16.7747826 L343.897638,13.9199056 L350.489764,13.9199056 C351.062992,13.9674868 351.513386,14.5860435 351.513386,15.3473441 C351.513386,16.084854 351.062992,16.7034107 350.489764,16.7747826 Z M424.825197,18.7018247 L424.825197,24.7446478 L422.266142,24.7446478 L422.266142,17.8929428 L422.266142,11.0412378 L433.423622,11.0650285 C434.385827,11.2077723 435.16378,12.8493267 435.16378,14.8715313 C435.16378,16.8699452 434.406299,18.5352902 433.423622,18.678034 L433.423622,18.7018247 L429.660787,18.7018247 L435.900787,24.7446478 L432.48189,24.7446478 L426.24189,18.7018247 L424.825197,18.7018247 Z M431.151181,16.7747826 L424.559055,16.7747826 L424.559055,13.9199056 L431.151181,13.9199056 C431.724409,13.9674868 432.174803,14.5860435 432.174803,15.3473441 C432.174803,16.084854 431.724409,16.7034107 431.151181,16.7747826 Z M449.023622,13.5868366 L441.919685,13.5868366 L441.919685,16.4892949 L449.125984,16.4892949 L449.125984,16.4966411 C449.180199,16.4917725 449.234829,16.4892949 449.289764,16.4892949 C450.477165,16.4892949 451.43937,17.6074551 451.43937,18.9873124 L451.43937,22.1276772 C451.43937,23.5075344 450.477165,24.6256946 449.289764,24.6256946 C449.190431,24.6256946 449.092094,24.6175943 448.995412,24.601904 L440.896063,24.601904 L440.896063,24.5776546 C440.882435,24.57796 440.868786,24.5781133 440.855118,24.5781133 C439.667717,24.5781133 438.725984,23.4599531 438.725984,22.1038865 L438.725984,20.7954012 L441.162205,20.7954012 L441.162205,22.0325146 L448.982677,22.0325146 L448.982677,19.0586843 L441.886478,19.0586843 C441.789796,19.0743746 441.691459,19.082475 441.592126,19.082475 C440.425197,19.082475 439.462992,17.9643148 439.462992,16.6082481 L439.462992,13.491674 C439.462992,12.1118167 440.425197,11.0174472 441.592126,11.0174472 C441.661709,11.0174472 441.72995,11.0210839 441.79685,11.0282039 L441.79685,11.0174472 L449.125984,11.0174472 L449.125984,11.0304188 C449.199921,11.0218046 449.275015,11.0174472 449.351181,11.0174472 C450.579528,11.0174472 451.562205,12.159398 451.562205,13.5868366 L451.562205,14.9429032 L449.023622,14.9429032 L449.023622,13.5868366 Z M376.87874,24.5781133 L374.770079,24.5781133 L383.573014,13.5392553 L376.489764,13.5392553 L376.489764,10.9460753 L386.285827,10.9460753 L389.03937,10.9460753 L380.217463,22.008724 L387.831496,22.008724 L387.831496,24.601904 L376.87874,24.601904 L376.87874,24.5781133 Z M391.72126,24.5781133 L389.612598,24.5781133 L398.382378,13.5392553 L391.332283,13.5392553 L391.332283,10.9460753 L401.107874,10.9460753 L403.840945,10.9460753 L395.052265,22.008724 L402.674016,22.008724 L402.674016,24.601904 L391.72126,24.601904 L391.72126,24.5781133 Z" id="Brazzers"></path>
                </g>
            </g>
        </g>
    </g>
</svg>