<?xml version="1.0" encoding="UTF-8" standalone="no"?>
<svg width="139px" height="36px" viewBox="0 0 139 36" version="1.1" xmlns="http://www.w3.org/2000/svg" xmlns:xlink="http://www.w3.org/1999/xlink">
    <!-- Generator: Sketch 39.1 (31720) - http://www.bohemiancoding.com/sketch -->
    <title>Evernote</title>
    <desc>Created with Sketch.</desc>
    <defs></defs>
    <g id="Page-1" stroke="none" stroke-width="1" fill="none" fill-rule="evenodd" opacity="0.200000018">
        <g id="Front-end-Developer-Test" transform="translate(-237.000000, -3046.000000)" fill="#FFFFFF">
            <g id="Call-to-Action-#8" transform="translate(0.000000, 2414.000000)">
                <g id="Logos" transform="translate(237.000000, 632.000000)">
                    <path d="M2.93860212,6.80861673 L2.93860212,6.80861673 L6.24109657,6.80861673 C6.43334157,6.80861673 6.58439121,6.6576442 6.58439121,6.46549735 C6.58439121,6.46549735 6.54319585,3.63819369 6.54319585,2.84901912 L6.54319585,2.84215674 C6.54319585,2.19709231 6.68051371,1.63437653 6.91395406,1.16087179 L7.02380835,0.948137779 C7.01007656,0.948137779 6.99634478,0.955000166 6.98261299,0.968724941 L0.569869103,7.32329579 C0.556137318,7.33702057 0.549271425,7.34388296 0.549271425,7.35760773 C0.679723388,7.28898386 0.865102494,7.19977282 0.885700173,7.19291043 C1.44870338,6.94586448 2.12842677,6.80861673 2.93860212,6.80861673 L2.93860212,6.80861673 Z M28.6101754,6.11551559 C28.3492714,4.71558853 27.5116325,4.02248739 26.7632502,3.74799189 C25.9530748,3.45290923 24.2983947,3.15096418 22.224895,2.90391822 C20.5564831,2.70490899 18.5997036,2.72549615 17.4119042,2.75980809 C17.2677204,1.78534906 16.587997,0.900101066 15.8258829,0.591293627 C13.7935787,-0.225330489 10.6489998,-0.0263212505 9.8388244,0.19327515 C9.20029637,0.371697226 8.48624352,0.742266153 8.09488763,1.30498193 C7.82711781,1.68241324 7.65547049,2.16964276 7.65547049,2.84215674 C7.65547049,3.22645044 7.66920227,4.12542321 7.67606816,4.92832255 C7.68293406,5.73122189 7.69666584,6.45177258 7.69666584,6.45863497 C7.69666584,7.17232327 7.11306495,7.75562621 6.3990121,7.75562621 L3.09651766,7.75562621 C2.3893307,7.75562621 1.85379106,7.8722868 1.44183749,8.05757126 C1.02988392,8.24285572 0.741516424,8.49676406 0.514941961,8.79184673 C0.0755248209,9.38201205 0,10.1162875 0,10.8574254 C0,10.8574254 0.00686589281,11.4681779 0.151049642,12.6416461 C0.274635713,13.5543437 1.26332428,19.9226393 2.20395159,21.8578326 C2.56784391,22.6126952 2.80815016,22.9215027 3.52906891,23.2577596 C5.12195604,23.937136 8.76087923,24.698861 10.4704865,24.9184574 C12.173228,25.1380538 13.2443072,25.5909714 13.8828353,24.2596682 C13.8828353,24.2596682 14.0132872,23.9302736 14.1849346,23.4430441 C14.7410719,21.7686215 14.8165967,20.2794835 14.8165967,19.2020886 C14.8165967,19.0922904 14.9745122,19.085428 14.9745122,19.2020886 C14.9745122,19.9638136 14.8303285,22.6470071 16.8626327,23.3675578 C17.6659422,23.6489157 19.3274883,23.9028241 21.0164979,24.1018333 C22.547592,24.2802554 23.6530007,24.8772831 23.6530007,28.7957064 C23.6530007,31.1769548 23.1517906,31.5063495 20.5358854,31.5063495 C18.4143245,31.5063495 17.6041492,31.5612486 17.6041492,29.8731012 C17.6041492,28.5074861 18.9498642,28.6515962 19.9522845,28.6515962 C20.3985675,28.6515962 20.0758706,28.3222016 20.0758706,27.478128 C20.0758706,26.6409167 20.5976784,26.1605496 20.1033342,26.1468248 C16.6497901,26.0507514 14.6174858,26.1399624 14.6174858,30.4632665 C14.6174858,34.3816898 16.1211163,35.1159653 21.0233638,35.1159653 C24.8682638,35.1159653 26.2208447,34.9924423 27.8137318,30.0652481 C28.1295629,29.090789 28.8848111,26.1262376 29.3448259,21.1441443 C29.6194616,18.021758 29.0564584,8.51735122 28.6101754,6.11551559 L28.6101754,6.11551559 Z M21.909064,16.6218309 C21.4353174,16.6081061 20.9753025,16.6355557 20.5496172,16.7041795 C20.6663374,15.7365829 21.071425,14.5493899 22.485799,14.5974266 C24.0512225,14.6523257 24.2709311,16.1346014 24.277797,17.13651 C23.6186713,16.8414273 22.7947641,16.6561428 21.909064,16.6218309 Z M33.9037787,21.9744932 L35.3799457,21.9744932 L35.4486046,12.5387103 L33.8969128,12.5387103 L33.8969128,10.72704 L43.687676,10.72704 L43.8043961,14.3984173 L41.8750803,14.3984173 L41.7102988,12.5387103 L38.0164485,12.5387103 L37.9958508,16.2306748 L41.7377624,16.2306748 L41.7377624,18.0423451 L37.9752531,18.0423451 L37.9546555,21.9744932 L41.6691035,21.9744932 L41.9094097,19.8746026 L44.003507,19.8746026 L43.7632008,23.7793011 L33.8969128,23.7793011 L33.8969128,21.9744932 L33.9037787,21.9744932 Z M59.4037046,12.5455727 L58.1678439,12.5455727 L53.5196345,23.7861635 L50.8488022,23.7861635 L46.1799951,12.5455727 L44.8686095,12.5455727 L44.8686095,10.7339024 L50.4437145,10.7339024 L50.4437145,12.5455727 L49.132329,12.5455727 L52.3524327,21.404915 L52.4004939,21.404915 L55.5931341,12.5455727 L54.0208447,12.5455727 L54.0208447,10.7339024 L59.4037046,10.7339024 L59.4037046,12.5455727 L59.4037046,12.5455727 Z M60.6876266,21.9744932 L62.1637935,21.9744932 L62.2324525,12.5387103 L60.6876266,12.5387103 L60.6876266,10.72704 L70.4783897,10.72704 L70.5951099,14.3984173 L68.665794,14.3984173 L68.5010126,12.5387103 L64.8071623,12.5387103 L64.7865646,16.2306748 L68.5284762,16.2306748 L68.5284762,18.0423451 L64.7659669,18.0423451 L64.7385033,21.9744932 L68.4529513,21.9744932 L68.6932576,19.8746026 L70.7873549,19.8746026 L70.5470487,23.7793011 L60.6876266,23.7793011 L60.6876266,21.9744932 Z M73.2453445,21.9744932 L74.7215115,21.9744932 L74.7901704,12.5387103 L73.2384786,12.5387103 L73.2384786,10.72704 L79.2667325,10.72704 C82.2945913,10.72704 83.269548,12.4632241 83.269548,14.1582338 C83.269548,15.6610966 82.5280316,17.0198494 80.1936281,17.6100147 L80.1936281,17.6580514 C81.4088911,17.9943084 81.7178563,18.3031158 82.9331193,20.396144 C83.7432946,21.7548968 84.0316621,21.9676308 84.4848111,21.9676308 C84.6770561,21.9676308 84.8624352,21.9195941 85.0340825,21.8990069 L85.0340825,23.7793011 L83.7020993,23.7793011 C81.9375648,23.7793011 81.7247222,23.5665671 80.3446777,20.8284745 C79.1019511,18.3991893 78.8204495,18.234492 77.8660904,18.234492 L77.3442825,18.234492 L77.316819,21.9744932 L78.8685107,21.9744932 L78.8685107,23.7861635 L73.2453445,23.7861635 L73.2453445,21.9744932 Z M77.3717461,16.4228217 L78.3947641,16.4228217 C79.8022722,16.4228217 80.7497654,15.6610966 80.7497654,14.4464541 C80.7497654,13.2523986 80.1524327,12.5387103 78.9646332,12.5387103 L77.3923438,12.5387103 L77.3717461,16.4228217 Z M97.0287972,12.5455727 L95.4771055,12.5455727 L95.4771055,10.7339024 L100.599061,10.7339024 L100.599061,12.5455727 L99.1228945,12.5455727 L99.0542356,23.7861635 L97.0974562,23.7861635 L90.1217091,14.4944908 L90.0736478,14.4944908 L89.998123,21.9744932 L91.5498148,21.9744932 L91.5498148,23.7861635 L86.4278587,23.7861635 L86.4278587,21.9744932 L87.9040257,21.9744932 L87.9726846,12.5387103 L86.4209928,12.5387103 L86.4209928,10.72704 L90.2796246,10.72704 L96.9052112,19.5657951 L96.9532724,19.5657951 L97.0287972,12.5455727 Z M108.014226,10.4731317 C112.518251,10.4731317 114.495629,13.4514079 114.495629,17.0747485 C114.495629,21.192181 112.037639,24.0537966 108.014226,24.0537966 C103.5102,24.0537966 101.532823,21.0755204 101.532823,17.4315926 C101.532823,13.3278849 103.990813,10.4731317 108.014226,10.4731317 Z M108.014226,21.953906 C110.444752,21.953906 111.824796,19.881465 111.824796,17.2394458 C111.824796,14.2611696 110.204446,12.5730223 108.014226,12.5730223 C105.5837,12.5730223 104.203655,14.6454633 104.203655,17.3355192 C104.203655,20.2588963 105.824006,21.953906 108.014226,21.953906 Z M118.601432,21.9744932 L120.077599,21.9744932 L120.146258,12.5387103 L117.523487,12.5387103 L117.427365,14.3984173 L115.449988,14.3984173 L115.594171,10.72704 L127.300519,10.72704 L127.444702,14.3984173 L125.467325,14.3984173 L125.371203,12.5387103 L122.748432,12.5387103 L122.679773,21.9744932 L124.231465,21.9744932 L124.231465,23.7861635 L118.608298,23.7861635 L118.601432,21.9744932 Z M128.893406,21.9744932 L130.369573,21.9744932 L130.445098,12.5387103 L128.893406,12.5387103 L128.893406,10.72704 L138.691035,10.72704 L138.807755,14.3984173 L136.878439,14.3984173 L136.713658,12.5387103 L133.019807,12.5387103 L132.99921,16.2306748 L136.741121,16.2306748 L136.741121,18.0423451 L132.978612,18.0423451 L132.951148,21.9744932 L136.665596,21.9744932 L136.905903,19.8746026 L139,19.8746026 L138.759694,23.7793011 L128.893406,23.7793011 L128.893406,21.9744932 L128.893406,21.9744932 Z" id="Evernote"></path>
                </g>
            </g>
        </g>
    </g>
</svg>