<?xml version="1.0" encoding="UTF-8" standalone="no"?>
<svg width="156px" height="30px" viewBox="0 0 156 30" version="1.1" xmlns="http://www.w3.org/2000/svg" xmlns:xlink="http://www.w3.org/1999/xlink">
    <!-- Generator: Sketch 39.1 (31720) - http://www.bohemiancoding.com/sketch -->
    <title>Motorola</title>
    <desc>Created with Sketch.</desc>
    <defs></defs>
    <g id="Page-1" stroke="none" stroke-width="1" fill="none" fill-rule="evenodd" opacity="0.200000018">
        <g id="Front-end-Developer-Test" transform="translate(-745.000000, -3049.000000)" fill="#FFFFFF">
            <g id="Call-to-Action-#8" transform="translate(0.000000, 2414.000000)">
                <g id="Logos" transform="translate(237.000000, 632.000000)">
                    <path d="M508,18.0777202 C508,26.2935685 514.712743,33 523.056974,33 C531.245979,33 537.958721,26.2002075 537.958721,18.0777202 C537.958721,9.7219917 531.245979,3 523.056974,3 C514.712743,3 508,9.7219917 508,18.0777202 Z M518.555404,6.2642487 L523.056974,21.1865285 L527.558543,6.2642487 L533.301925,25.3834197 L532.370566,25.3834197 C532.370566,25.3834197 532.071908,24.4065277 531.74966,23.5181347 C530.483785,19.242956 528.817813,17.5682841 526.316731,18.5440415 C525.719416,18.7002383 524.831935,19.5065618 524.298786,20.253886 C523.913315,21.0261715 523.259382,22.2201505 523.056974,23.2072539 C522.838996,22.2201505 522.185063,21.0261715 521.815162,20.253886 C521.266443,19.5065618 520.394532,18.7002383 519.797217,18.5440415 C517.296135,17.5682841 515.614593,19.242956 514.364288,23.5181347 C514.04204,24.4065277 513.715073,25.3834197 513.743382,25.3834197 L512.812023,25.3834197 L518.555404,6.2642487 Z M574.436957,12.7927461 C573.58432,12.8102533 572.745919,12.9023388 571.953332,13.1036269 C569.500997,13.6234155 566.597647,15.4495188 566.054724,18.2331606 C565.852402,19.7728575 566.628699,21.1463369 567.917442,21.9637306 C569.656257,22.988048 571.736733,23.2845946 573.816051,23.2072539 C575.307699,23.0504788 576.860293,22.6602858 578.162394,21.9637306 C579.499703,21.2087678 580.586518,20.1474428 581.111698,18.5440415 C581.564653,17.6345997 581.518075,16.2923358 580.956471,15.4352332 C579.313391,13.4049074 576.875819,12.7525047 574.436957,12.7927461 L574.436957,12.7927461 Z M601.912054,12.7927461 C601.05337,12.8102533 600.230672,12.9023388 599.428429,13.1036269 C596.970926,13.6234155 594.083723,15.4495188 593.529821,18.2331606 C593.338638,19.7728575 594.099246,21.1463369 595.392539,21.9637306 C597.126152,22.988048 599.20618,23.2845946 601.291148,23.2072539 C602.776378,23.0504788 604.328638,22.6602858 605.63749,21.9637306 C606.967479,21.2087678 608.054061,20.1474428 608.586795,18.5440415 C609.047508,17.6345997 608.985417,16.2923358 608.431568,15.4352332 C606.796731,13.4049074 604.34416,12.7525047 601.912054,12.7927461 L601.912054,12.7927461 Z M631.715548,12.7927461 C630.856878,12.8102533 630.018659,12.9023388 629.231924,13.1036269 C626.774442,13.6234155 623.871721,15.4495188 623.333315,18.2331606 C623.14216,19.7728575 623.902766,21.1463369 625.196034,21.9637306 C626.929668,22.988048 628.99417,23.2845946 631.094642,23.2072539 C632.595406,23.0504788 634.13214,22.6602858 635.440985,21.9637306 C636.770977,21.2087678 637.857557,20.1474428 638.390289,18.5440415 C638.851002,17.6345997 638.788912,16.2923358 638.235063,15.4352332 C636.600229,13.4049074 634.147663,12.7525047 631.715548,12.7927461 L631.715548,12.7927461 Z M550.99775,12.9481865 L548.203673,23.0518135 L551.46343,23.0518135 C551.46343,23.0518135 552.930639,17.7979275 553.015695,17.7668394 C552.992836,17.5958549 553.055033,17.5647668 553.015695,17.611399 C553.086132,17.5647668 553.13278,17.611399 553.170922,17.611399 L554.412734,23.0518135 L556.585905,23.0518135 L560.932248,17.7668394 C560.954044,17.7357513 560.985142,17.7202073 560.932248,17.7668394 L559.53521,23.0518135 L563.5711,23.0518135 L566.365177,12.9481865 L560.932248,12.9481865 L557.362038,17.3005181 L556.275452,12.9481865 L550.99775,12.9481865 Z M582.508737,12.9481865 L581.577378,16.2124352 L585.613267,16.2124352 C585.762705,16.1658031 585.82494,16.2590674 585.768494,16.3678756 L584.061002,23.0518135 L587.941665,23.0518135 L589.95961,16.2124352 L589.95961,16.0569948 L594.150727,16.0569948 L594.92686,12.9481865 L582.508737,12.9481865 Z M611.225646,12.9481865 C610.394479,16.2746114 609.529641,19.6943005 608.742021,23.0518135 L612.467458,23.0518135 L613.243591,20.0984456 L613.243591,20.0984456 L616.503348,20.0984456 C616.988866,20.0673575 617.205075,20.4404145 617.279481,20.8756477 L617.124254,22.119171 C617.066084,22.3523316 617.096971,22.5233161 617.124254,22.5854922 C617.251406,22.865285 617.436728,23.0051813 617.589934,23.0518135 L622.091503,23.0518135 C621.869021,22.8341969 621.575594,22.507772 621.625824,22.119171 C621.637369,21.4041451 621.915352,20.611399 621.78105,19.7875648 C621.621925,19.2435233 621.019627,18.8860104 620.539238,18.6994819 C620.448217,18.6217617 620.540878,18.5751295 620.539238,18.5440415 C621.606481,18.1398964 622.733859,17.3937824 623.178089,16.2124352 C623.475149,15.4974093 623.382487,14.4404145 622.712409,13.880829 C622.239666,13.3056995 621.436603,12.9481865 620.694464,12.9481865 L616.037668,12.9481865 L611.225646,12.9481865 Z M641.02914,12.9481865 L638.700742,23.0518135 L648.790467,23.0518135 L649.411373,20.0984456 L643.512765,20.0984456 C643.505801,20.1405989 643.459301,20.062759 643.512765,19.9430052 L645.06503,12.9481865 L641.02914,12.9481865 Z M656.086114,12.9481865 L649.5666,23.0518135 L652.981584,23.0518135 L654.068169,21.1865285 L658.880192,21.1865285 C658.854176,21.2487047 658.869786,21.2797927 658.880192,21.3419689 L659.345872,23.0518135 L663.536988,23.0518135 L661.20859,12.9481865 L656.086114,12.9481865 Z M574.436957,15.4352332 C575.12483,15.4362036 575.825219,15.6066091 576.299675,15.9015544 C576.650122,16.1642997 576.899149,16.4741278 577.075808,16.8341969 C577.241561,17.8683542 576.759071,18.8752956 575.833996,19.6321244 C574.82911,20.4709103 573.225998,20.8581954 571.798106,20.253886 C571.34273,20.114608 570.797983,19.618883 570.71152,19.0103627 C570.626777,17.7599144 571.296037,16.5515848 572.419012,15.9015544 C572.992535,15.5911177 573.708488,15.4207122 574.436957,15.4352332 L574.436957,15.4352332 Z M602.06728,15.4352332 C602.741222,15.4362036 603.456969,15.6066091 603.929999,15.9015544 C604.266075,16.1642997 604.530591,16.4741278 604.706131,16.8341969 C604.872905,17.8683542 604.374994,18.8752956 603.464319,19.6321244 C602.445587,20.4709103 600.858494,20.8581954 599.428429,20.253886 C598.960207,20.114608 598.431176,19.618883 598.341843,19.0103627 C598.24446,17.7599144 598.913528,16.5515848 600.049335,15.9015544 C600.609539,15.5911177 601.325286,15.4207122 602.06728,15.4352332 L602.06728,15.4352332 Z M631.715548,15.4352332 C632.398936,15.4362036 633.114571,15.6066091 633.578267,15.9015544 C633.939107,16.1642997 634.188023,16.4741278 634.354399,16.8341969 C634.530283,17.8683542 634.03245,18.8752956 633.112587,19.6321244 C632.103348,20.4709103 630.516505,20.8581954 629.076697,20.253886 C628.618518,20.114608 628.074013,19.618883 627.990112,19.0103627 C627.91844,17.7599144 628.587403,16.5515848 629.697603,15.9015544 C630.283146,15.5911177 630.998781,15.4207122 631.715548,15.4352332 L631.715548,15.4352332 Z M616.192895,15.5906736 L618.521293,15.5906736 C618.752698,15.6056722 618.998566,15.7706572 619.142199,16.0569948 C619.213702,16.2956095 619.106134,16.6255795 618.831746,16.8341969 C618.583663,17.1355331 618.322427,17.2555222 617.900387,17.3005181 L614.019723,17.3005181 L614.485403,15.5906736 L616.192895,15.5906736 Z M657.483153,16.2124352 C657.480109,16.2124352 657.510546,16.2124352 657.483153,16.2124352 L658.104059,18.6994819 L655.775661,18.6994819 L657.483153,16.2124352 L657.483153,16.2124352 L657.483153,16.2124352 Z" id="Motorola"></path>
                </g>
            </g>
        </g>
    </g>
</svg>